<svg version="1.1" id="Layer_1" xmlns="http://www.w3.org/2000/svg" xmlns:xlink="http://www.w3.org/1999/xlink" x="0px" y="0px"
	 width="100%" viewBox="0 0 512 512" enable-background="new 0 0 512 512" xml:space="preserve">
<path fill="#FC6BBE" opacity="1.000000" stroke="none" 
	d="
M289.000000,513.000000 
	C267.979095,513.000000 246.958206,513.000000 225.816986,512.673218 
	C222.610397,511.566223 219.565399,510.489746 216.431274,510.053497 
	C195.242981,507.104401 175.025208,500.652710 155.721390,491.798889 
	C122.486214,476.555450 93.468384,455.421539 69.983498,426.644836 
	C70.006149,378.517639 69.886017,330.866547 70.158165,283.217651 
	C70.200348,275.830750 72.037895,268.454041 73.257339,261.025940 
	C73.469498,260.979248 73.896095,260.896942 74.370583,260.923706 
	C76.844780,260.968170 78.844490,261.001373 80.844200,261.001434 
	C194.673935,261.003937 308.503662,261.003052 422.333405,261.005035 
	C430.611847,261.005157 430.999390,261.402771 431.000153,269.831696 
	C431.002838,299.497437 430.907654,329.163757 431.096649,358.828278 
	C431.126831,363.562378 429.855621,365.136597 424.953217,365.101746 
	C395.622314,364.893311 366.287231,364.822205 336.958221,365.138184 
	C330.605774,365.206635 324.272369,367.043823 317.623169,368.203735 
	C316.282471,368.873352 315.224426,369.363434 314.218628,369.944061 
	C289.461914,384.235199 288.457001,419.370544 312.242493,435.229614 
	C322.267242,441.913727 333.415802,442.294983 345.286835,441.893463 
	C371.472443,441.942108 397.178223,441.935730 422.883667,442.028656 
	C424.946960,442.036133 427.007782,442.727631 428.935974,443.407928 
	C425.851868,446.317932 422.839203,448.854431 419.961853,451.536102 
	C407.162872,463.464661 392.939331,473.490265 377.707092,481.946106 
	C350.598755,496.994537 321.824341,507.349304 290.861816,511.074951 
	C290.173950,511.157715 289.617645,512.333862 289.000000,513.000000 
z"/>
<path fill="#000000" opacity="1.000000" stroke="none" 
	d="
M69.969421,427.121643 
	C93.468384,455.421539 122.486214,476.555450 155.721390,491.798889 
	C175.025208,500.652710 195.242981,507.104401 216.431274,510.053497 
	C219.565399,510.489746 222.610397,511.566223 225.348328,512.673218 
	C150.365845,513.000000 75.731689,513.000000 1.048766,513.000000 
	C1.048766,342.440155 1.048766,171.880310 1.048766,1.000000 
	C90.353973,1.000000 179.708328,1.000000 269.868286,1.315767 
	C269.687866,2.086764 268.745148,2.736177 267.709137,2.967128 
	C257.558868,5.229866 247.764572,8.378901 238.725555,14.122972 
	C238.273621,14.374728 238.086441,14.664524 237.934174,14.964958 
	C237.969070,14.975596 237.944839,14.906762 237.581741,14.949698 
	C232.391830,18.344002 227.565018,21.695372 222.333069,25.026165 
	C220.322693,25.327972 218.730164,25.749065 217.110260,25.957754 
	C196.830978,28.570278 177.424881,34.528763 158.862259,42.759533 
	C122.817513,58.741970 91.902519,81.682404 66.918999,112.473190 
	C47.243782,136.721786 32.553459,163.557175 23.121788,193.689758 
	C15.788253,215.775650 11.805394,238.030243 12.091842,261.456543 
	C11.215675,286.813049 13.850758,311.216614 20.847143,335.245972 
	C27.099556,356.720123 35.563873,377.137421 47.593220,395.927643 
	C54.483078,406.689819 62.474140,416.747040 69.969421,427.121643 
z"/>
<path fill="#000000" opacity="1.000000" stroke="none" 
	d="
M289.468628,513.000000 
	C289.617645,512.333862 290.173950,511.157715 290.861816,511.074951 
	C321.824341,507.349304 350.598755,496.994537 377.707092,481.946106 
	C392.939331,473.490265 407.162872,463.464661 419.961853,451.536102 
	C422.839203,448.854431 425.851868,446.317932 429.245056,443.277740 
	C438.232513,432.950623 447.606110,423.644653 455.099121,413.013245 
	C463.329620,401.335358 469.828033,388.436707 477.365601,375.867920 
	C480.801483,368.416199 484.310699,361.298096 487.035339,353.891388 
	C494.399109,333.873260 499.521759,313.360596 501.145050,291.949951 
	C502.719330,271.186279 502.799866,250.456940 499.755493,229.921906 
	C497.198242,212.672470 492.369934,195.888580 486.086884,179.510178 
	C474.566742,149.479797 457.513275,122.968155 435.760010,99.497246 
	C428.123962,91.258270 419.655304,83.670898 410.881348,76.641579 
	C402.668915,70.062141 393.549316,64.615044 384.604858,58.421387 
	C378.401184,44.472404 368.580048,33.644936 357.384949,24.270805 
	C344.348175,13.354612 329.232513,6.134093 312.367188,2.908252 
	C311.810150,2.801709 311.451263,1.659465 311.000000,1.000001 
	C378.301910,1.000000 445.603851,1.000000 512.952881,1.000000 
	C512.952881,171.555649 512.952881,342.111328 512.952881,513.000000 
	C438.646118,513.000000 364.291718,513.000000 289.468628,513.000000 
z"/>
<path fill="#FFB874" opacity="1.000000" stroke="none" 
	d="
M310.531342,1.000001 
	C311.451263,1.659465 311.810150,2.801709 312.367188,2.908252 
	C329.232513,6.134093 344.348175,13.354612 357.384949,24.270805 
	C368.580048,33.644936 378.401184,44.472404 384.589600,58.834743 
	C385.300018,60.726757 385.785889,61.963863 386.305450,63.186649 
	C399.716278,94.750175 398.327820,125.751244 382.532013,156.088013 
	C374.686768,171.155167 363.038696,182.929489 349.189789,193.020142 
	C347.059662,194.133820 345.225891,195.165771 342.987671,196.137482 
	C336.019562,194.220490 334.656952,191.555786 336.252380,182.931458 
	C355.355774,171.860352 368.445190,155.979309 375.153656,135.512070 
	C385.277954,104.623070 380.757843,75.841583 360.582306,49.834396 
	C338.573456,21.464012 298.411530,8.951781 264.154144,20.146420 
	C258.021851,22.150330 252.068939,24.703169 245.647583,27.000435 
	C239.152328,25.783794 238.097717,24.041044 237.944839,14.906762 
	C237.944839,14.906762 237.969070,14.975596 238.143494,14.873888 
	C238.577148,14.607066 238.801270,14.403344 238.990311,14.161014 
	C247.764572,8.378901 257.558868,5.229866 267.709137,2.967128 
	C268.745148,2.736177 269.687866,2.086764 270.336945,1.315767 
	C283.354218,1.000000 296.708466,1.000000 310.531342,1.000001 
z"/>
<path fill="#FC4FAA" opacity="1.000000" stroke="none" 
	d="
M477.081146,376.069977 
	C469.828033,388.436707 463.329620,401.335358 455.099121,413.013245 
	C447.606110,423.644653 438.232513,432.950623 429.378815,442.971069 
	C427.007782,442.727631 424.946960,442.036133 422.883667,442.028656 
	C397.178223,441.935730 371.472443,441.942108 345.132751,441.619751 
	C337.147125,435.000824 335.965393,429.655182 340.005219,420.979401 
	C340.012878,421.003357 339.963470,421.012787 340.155518,420.885651 
	C340.590393,420.567719 340.799225,420.345062 341.192078,419.830750 
	C351.938721,413.076141 354.833221,403.724854 349.385773,393.804199 
	C345.008240,385.832092 334.695465,383.373993 324.894714,387.660828 
	C318.578827,382.322510 315.261169,376.264282 317.930206,368.066345 
	C324.272369,367.043823 330.605774,365.206635 336.958221,365.138184 
	C366.287231,364.822205 395.622314,364.893311 424.953217,365.101746 
	C429.855621,365.136597 431.126831,363.562378 431.096649,358.828278 
	C430.907654,329.163757 431.002838,299.497437 431.000153,269.831696 
	C430.999390,261.402771 430.611847,261.005157 422.333405,261.005035 
	C308.503662,261.003052 194.673935,261.003937 80.844200,261.001434 
	C78.844490,261.001373 76.844780,260.968170 74.454094,260.584198 
	C75.870644,257.468384 77.221848,254.212601 79.586479,252.081100 
	C83.728241,248.347717 88.491844,245.304214 93.406319,241.904358 
	C98.978920,241.538239 104.140121,241.239426 109.750351,240.965942 
	C116.474083,240.962387 122.748810,240.933517 129.487396,240.957397 
	C135.965942,240.980042 141.980637,240.949951 148.461517,240.975342 
	C173.950867,240.992065 198.974014,240.953293 224.459747,240.979614 
	C229.600693,240.980576 234.279053,240.916428 239.423065,240.934021 
	C245.581253,240.973083 251.273773,240.930435 257.433350,240.949249 
	C264.106201,240.968323 270.312012,240.925934 277.015686,240.918427 
	C328.700226,240.953644 379.886902,240.953964 431.525787,241.007187 
	C433.306213,241.079269 434.634399,241.111435 435.962677,241.115677 
	C447.905518,241.153870 451.038025,244.270874 451.049042,256.123413 
	C451.075317,284.355408 451.104279,312.587402 451.095825,341.297668 
	C451.042542,348.101959 450.912079,354.431366 451.097626,360.751465 
	C451.138092,362.129303 451.979889,364.291382 453.009827,364.705109 
	C461.570801,368.143890 472.214447,364.109711 476.668274,356.526611 
	C476.882141,363.341431 476.981659,369.705719 477.081146,376.069977 
z"/>
<path fill="#FC4FAA" opacity="1.000000" stroke="none" 
	d="
M69.983490,426.644836 
	C62.474140,416.747040 54.483078,406.689819 47.593220,395.927643 
	C35.563873,377.137421 27.099556,356.720123 20.847143,335.245972 
	C13.850758,311.216614 11.215675,286.813049 12.549959,261.458008 
	C33.068794,261.021088 53.056988,261.046844 73.045181,261.072632 
	C72.037895,268.454041 70.200348,275.830750 70.158165,283.217651 
	C69.886017,330.866547 70.006149,378.517639 69.983490,426.644836 
z"/>
<path fill="#FF228E" opacity="1.000000" stroke="none" 
	d="
M73.257339,261.025940 
	C53.056988,261.046844 33.068794,261.021088 12.622484,260.993835 
	C11.805394,238.030243 15.788253,215.775650 23.577541,193.634552 
	C35.048321,193.205811 46.013523,193.201538 57.054558,193.520660 
	C58.271812,195.247650 59.308491,196.754364 60.572128,198.037582 
	C67.336823,204.907166 71.465210,213.213623 72.720596,222.631241 
	C73.493996,228.433136 72.863808,234.422134 72.863808,240.998123 
	C75.362053,240.998123 77.813744,240.887161 80.251740,241.022675 
	C84.503922,241.259018 88.747658,241.647171 92.994934,241.971680 
	C88.491844,245.304214 83.728241,248.347717 79.586479,252.081100 
	C77.221848,254.212601 75.870644,257.468384 73.979607,260.557434 
	C73.896095,260.896942 73.469498,260.979248 73.257339,261.025940 
z"/>
<path fill="#FF238F" opacity="1.000000" stroke="none" 
	d="
M317.623169,368.203735 
	C315.261169,376.264282 318.578827,382.322510 324.602875,387.823364 
	C318.413391,393.061951 314.933441,398.846710 316.717041,406.815796 
	C318.359772,414.155243 322.871643,418.854370 330.144348,420.464172 
	C333.309875,421.164886 336.706116,420.823517 339.997559,420.955444 
	C335.965393,429.655182 337.147125,435.000824 344.652832,441.590240 
	C333.415802,442.294983 322.267242,441.913727 312.242493,435.229614 
	C288.457001,419.370544 289.461914,384.235199 314.218628,369.944061 
	C315.224426,369.363434 316.282471,368.873352 317.623169,368.203735 
z"/>
<path fill="#3C2B8E" opacity="1.000000" stroke="none" 
	d="
M56.978729,193.197266 
	C46.013523,193.201538 35.048321,193.205811 23.627363,193.265320 
	C32.553459,163.557175 47.243782,136.721786 66.918999,112.473190 
	C91.902519,81.682404 122.817513,58.741970 158.862259,42.759533 
	C177.424881,34.528763 196.830978,28.570278 217.110260,25.957754 
	C218.730164,25.749065 220.322693,25.327972 222.249023,25.333792 
	C207.921524,38.292351 197.503204,53.800011 190.613800,72.056976 
	C172.242447,72.936325 155.351471,77.347900 139.571167,86.842613 
	C110.243286,104.735512 93.291382,130.515274 89.117455,164.228149 
	C87.947227,173.680054 88.906570,183.395615 88.428589,192.994629 
	C77.638313,193.065094 67.308517,193.131180 56.978729,193.197266 
z"/>
<path fill="#FEA46D" opacity="1.000000" stroke="none" 
	d="
M191.049408,72.004234 
	C197.503204,53.800011 207.921524,38.292351 222.654144,25.354366 
	C227.565018,21.695372 232.391830,18.344002 237.581741,14.949698 
	C238.097717,24.041044 239.152328,25.783794 245.633438,27.247072 
	C246.004898,27.495831 245.973480,27.988922 245.668854,28.140615 
	C228.678116,38.035652 216.444031,51.830788 208.501846,69.365776 
	C207.122879,72.410316 205.415649,73.222824 202.392929,72.873558 
	C198.628525,72.438568 194.832047,72.281380 191.049408,72.004234 
z"/>
<path fill="#FEA46D" opacity="1.000000" stroke="none" 
	d="
M238.725555,14.122972 
	C238.801270,14.403344 238.577148,14.607066 238.108597,14.863251 
	C238.086441,14.664524 238.273621,14.374728 238.725555,14.122972 
z"/>
<path fill="#3C2B8E" opacity="1.000000" stroke="none" 
	d="
M477.365601,375.867920 
	C476.981659,369.705719 476.882141,363.341431 476.755432,356.115051 
	C476.963470,345.769714 472.449677,341.028320 463.081360,340.927216 
	C459.098358,340.884216 455.115204,340.854919 451.132141,340.819397 
	C451.104279,312.587402 451.075317,284.355408 451.049042,256.123413 
	C451.038025,244.270874 447.905518,241.153870 435.962677,241.115677 
	C434.634399,241.111435 433.306213,241.079269 431.517059,240.542358 
	C431.053619,229.042587 431.058990,218.060532 431.046295,207.078491 
	C431.034210,196.617371 427.502350,193.146881 416.867401,193.118042 
	C394.406982,193.057129 371.946564,192.998169 349.486145,192.938416 
	C363.038696,182.929489 374.686768,171.155167 382.532013,156.088013 
	C398.327820,125.751244 399.716278,94.750175 386.305450,63.186649 
	C385.785889,61.963863 385.300018,60.726757 384.813721,59.082962 
	C393.549316,64.615044 402.668915,70.062141 410.881348,76.641579 
	C419.655304,83.670898 428.123962,91.258270 435.760010,99.497246 
	C457.513275,122.968155 474.566742,149.479797 486.086884,179.510178 
	C492.369934,195.888580 497.198242,212.672470 499.755493,229.921906 
	C502.799866,250.456940 502.719330,271.186279 501.145050,291.949951 
	C499.521759,313.360596 494.399109,333.873260 487.035339,353.891388 
	C484.310699,361.298096 480.801483,368.416199 477.365601,375.867920 
z"/>
<path fill="#FE228E" opacity="1.000000" stroke="none" 
	d="
M349.189789,193.020142 
	C371.946564,192.998169 394.406982,193.057129 416.867401,193.118042 
	C427.502350,193.146881 431.034210,196.617371 431.046295,207.078491 
	C431.058990,218.060532 431.053619,229.042587 431.064880,240.489471 
	C379.886902,240.953964 328.700226,240.953644 277.179260,240.598572 
	C282.216217,230.416763 287.587372,220.589706 293.398621,210.824722 
	C297.310852,210.589218 300.804932,210.448761 304.251251,209.966507 
	C318.215179,208.012589 331.509644,204.096222 343.392120,196.197723 
	C345.225891,195.165771 347.059662,194.133820 349.189789,193.020142 
z"/>
<path fill="#FFD47C" opacity="1.000000" stroke="none" 
	d="
M245.973480,27.988922 
	C245.973480,27.988922 246.004898,27.495831 246.019043,27.249193 
	C252.068939,24.703169 258.021851,22.150330 264.154144,20.146420 
	C298.411530,8.951781 338.573456,21.464012 360.582306,49.834396 
	C380.757843,75.841583 385.277954,104.623070 375.153656,135.512070 
	C368.445190,155.979309 355.355774,171.860352 335.931061,182.920715 
	C334.869476,183.068817 334.439423,183.069107 333.785797,182.805847 
	C332.050903,179.635773 330.539612,176.729233 329.210388,173.561752 
	C330.874207,172.232910 332.351471,171.158859 333.838196,170.098022 
	C354.115204,155.629593 366.266205,136.158188 367.838470,111.209671 
	C369.516937,84.576767 359.848663,62.151215 338.825928,45.462036 
	C317.903961,28.852842 294.215942,24.154793 268.423279,31.758266 
	C262.552551,33.488914 256.884338,35.906578 250.793167,37.867466 
	C245.823959,35.929985 245.911972,31.953344 245.973480,27.988922 
z"/>
<path fill="#FFA36D" opacity="1.000000" stroke="none" 
	d="
M334.009369,183.069397 
	C334.439423,183.069107 334.869476,183.068817 335.620850,183.079285 
	C334.656952,191.555786 336.019562,194.220490 342.987671,196.137482 
	C331.509644,204.096222 318.215179,208.012589 304.251251,209.966507 
	C300.804932,210.448761 297.310852,210.589218 293.413635,210.433304 
	C293.851898,206.261917 294.388184,202.420334 295.726318,198.881958 
	C296.330658,197.283981 298.347473,195.587250 300.039642,195.145004 
	C306.763397,193.387680 313.792847,192.651794 320.354187,190.470154 
	C325.191376,188.861801 329.477631,185.596436 334.009369,183.069397 
z"/>
<path fill="#FFD47C" opacity="1.000000" stroke="none" 
	d="
M223.997162,240.914520 
	C198.974014,240.953293 173.950867,240.992065 148.279205,240.702515 
	C142.083176,234.903763 135.764038,230.012726 131.137436,223.850861 
	C118.822968,207.450012 113.235107,188.967499 115.915428,168.212143 
	C119.226334,142.573700 131.920944,123.265640 153.973679,110.399857 
	C154.262344,114.291573 153.547333,118.348282 155.100082,121.146721 
	C158.113754,126.578110 161.710800,126.877586 169.349304,123.689873 
	C189.136734,115.432159 208.294937,116.917648 225.968857,128.780075 
	C255.100311,148.332611 259.120056,187.896011 238.497864,213.637161 
	C234.185959,219.019348 227.623047,222.598190 221.727661,226.949005 
	C217.257111,223.923416 213.156311,220.956879 209.038086,217.554108 
	C209.004547,215.077484 208.988434,213.037079 209.395966,210.997925 
	C218.330658,211.056183 224.481262,206.996475 228.401215,199.717773 
	C232.406830,192.279984 231.612427,184.900558 226.671158,178.134003 
	C224.636139,175.347275 224.176590,172.899277 225.196411,169.451889 
	C227.362457,162.129715 226.337509,155.030884 220.237122,149.857941 
	C216.910355,147.036942 212.699234,145.258835 208.901596,142.589935 
	C208.752182,140.361786 208.808823,138.499786 208.380249,136.757141 
	C207.339737,132.526260 203.648514,129.525284 200.218536,130.289413 
	C195.988876,131.231705 193.650757,133.913712 193.902466,138.491913 
	C193.984192,139.978271 193.862259,141.475815 193.469727,142.970276 
	C192.379303,143.006424 191.652618,143.040527 190.514206,143.050415 
	C187.225174,143.276337 186.024933,142.154648 185.912399,139.077103 
	C185.709946,133.540634 182.428162,130.115234 178.019135,130.173782 
	C173.977325,130.227448 171.657822,133.442764 170.850067,139.297470 
	C170.673035,140.580643 169.043137,141.663361 167.996857,142.503204 
	C165.798874,137.790436 163.686356,133.412811 161.151688,128.160416 
	C157.746002,131.011353 153.509201,133.669449 150.412827,137.300125 
	C135.023743,155.344711 130.853714,175.668228 138.914383,198.245956 
	C146.327362,219.009583 168.773941,234.656662 190.719406,235.129257 
	C201.903717,235.370102 212.014526,232.304398 221.930481,228.388763 
	C220.161621,233.248520 221.249939,237.227432 223.997162,240.914520 
z"/>
<path fill="#FFB874" opacity="1.000000" stroke="none" 
	d="
M333.785797,182.805847 
	C329.477631,185.596436 325.191376,188.861801 320.354187,190.470154 
	C313.792847,192.651794 306.763397,193.387680 300.039642,195.145004 
	C298.347473,195.587250 296.330658,197.283981 295.726318,198.881958 
	C294.388184,202.420334 293.851898,206.261917 292.973572,210.371246 
	C287.587372,220.589706 282.216217,230.416763 276.681458,240.563675 
	C270.312012,240.925934 264.106201,240.968323 257.510101,240.622406 
	C257.783539,239.294006 258.367096,238.283417 259.122620,237.423996 
	C283.404205,209.803665 289.213409,178.514511 276.413116,144.265961 
	C267.409332,120.175377 250.184036,103.386841 226.315063,93.746071 
	C211.256439,87.663826 195.554977,85.290276 179.446732,88.240723 
	C168.331406,90.276649 157.308716,92.936012 147.904541,99.686096 
	C142.200943,97.011719 139.124207,93.093849 139.917099,86.757492 
	C155.351471,77.347900 172.242447,72.936325 190.613800,72.056976 
	C194.832047,72.281380 198.628525,72.438568 202.392929,72.873558 
	C205.415649,73.222824 207.122879,72.410316 208.501846,69.365776 
	C216.444031,51.830788 228.678116,38.035652 245.668854,28.140615 
	C245.911972,31.953344 245.823959,35.929985 250.775635,38.125275 
	C251.072876,38.695244 251.057892,38.866844 250.724731,39.170013 
	C236.115570,47.763622 225.947754,59.760975 219.105057,75.091064 
	C225.490982,77.409164 231.341278,79.532822 237.100861,81.623550 
	C250.304337,62.781727 253.752335,59.160652 259.239777,57.453785 
	C261.588074,62.381126 263.838776,67.103653 265.715179,71.893730 
	C261.636993,72.977142 259.230408,75.105263 259.006042,79.193840 
	C258.771973,83.459877 261.566467,85.157455 264.837738,86.915970 
	C266.291016,87.697220 267.637817,89.797165 267.889465,91.470505 
	C268.499695,95.527924 267.078308,100.486145 268.931091,103.637871 
	C272.826324,110.263908 278.298370,115.962952 283.312927,122.254204 
	C283.980164,123.270432 284.457611,124.074951 284.957001,125.260681 
	C287.296082,130.430008 289.613159,135.218109 291.948547,140.408707 
	C292.606445,143.335831 293.305481,145.847229 293.872284,148.388107 
	C294.830597,152.684036 297.677704,153.718903 301.176758,151.942535 
	C303.170776,150.930206 304.517853,148.643600 306.467743,147.036407 
	C310.437347,150.330872 314.095428,153.519745 318.550201,157.403107 
	C312.635803,159.298782 306.918182,161.338104 301.073700,162.903839 
	C298.705688,163.538193 296.963104,163.928909 297.215393,166.884995 
	C297.567352,171.008560 297.877899,175.143585 297.966858,179.278870 
	C298.027435,182.093781 299.245514,183.386444 301.951935,182.889526 
	C310.788330,181.267059 319.534210,179.337646 327.352051,173.905853 
	C328.134338,173.873566 328.581299,173.848129 329.028290,173.822693 
	C330.539612,176.729233 332.050903,179.635773 333.785797,182.805847 
z"/>
<path fill="#FFF084" opacity="1.000000" stroke="none" 
	d="
M224.459747,240.979614 
	C221.249939,237.227432 220.161621,233.248520 221.959045,228.141541 
	C222.055603,227.504074 222.097443,227.008041 222.097443,227.008041 
	C227.623047,222.598190 234.185959,219.019348 238.497864,213.637161 
	C259.120056,187.896011 255.100311,148.332611 225.968857,128.780075 
	C208.294937,116.917648 189.136734,115.432159 169.349304,123.689873 
	C161.710800,126.877586 158.113754,126.578110 155.100082,121.146721 
	C153.547333,118.348282 154.262344,114.291573 153.999786,110.152756 
	C154.046906,109.502083 154.083969,109.006439 154.455322,108.991531 
	C155.777451,108.697647 156.809204,108.571342 157.666855,108.116669 
	C169.727722,101.722847 182.542709,99.487656 196.169006,99.862411 
	C211.707321,100.289764 225.865784,104.927605 238.054688,113.961914 
	C260.829437,130.842361 271.909241,153.681763 270.068115,182.430710 
	C268.857452,201.334656 261.573608,217.386520 248.537003,230.961838 
	C245.357956,234.272247 242.151337,237.556183 238.957397,240.852295 
	C234.279053,240.916428 229.600693,240.980576 224.459747,240.979614 
z"/>
<path fill="#FFD47C" opacity="1.000000" stroke="none" 
	d="
M239.423065,240.934021 
	C242.151337,237.556183 245.357956,234.272247 248.537003,230.961838 
	C261.573608,217.386520 268.857452,201.334656 270.068115,182.430710 
	C271.909241,153.681763 260.829437,130.842361 238.054688,113.961914 
	C225.865784,104.927605 211.707321,100.289764 196.169006,99.862411 
	C182.542709,99.487656 169.727722,101.722847 157.666855,108.116669 
	C156.809204,108.571342 155.777451,108.697647 154.100952,108.932159 
	C149.460587,107.215172 147.918945,104.109245 148.009995,100.008270 
	C148.004822,100.002556 148.016754,100.014236 148.016754,100.014236 
	C157.308716,92.936012 168.331406,90.276649 179.446732,88.240723 
	C195.554977,85.290276 211.256439,87.663826 226.315063,93.746071 
	C250.184036,103.386841 267.409332,120.175377 276.413116,144.265961 
	C289.213409,178.514511 283.404205,209.803665 259.122620,237.423996 
	C258.367096,238.283417 257.783539,239.294006 257.043091,240.560944 
	C251.273773,240.930435 245.581253,240.973083 239.423065,240.934021 
z"/>
<path fill="#FEA36D" opacity="1.000000" stroke="none" 
	d="
M139.571167,86.842613 
	C139.124207,93.093849 142.200943,97.011719 147.904541,99.686096 
	C148.016754,100.014236 148.004822,100.002556 147.658295,100.060417 
	C146.541519,100.425758 145.685013,100.605545 145.013428,101.059120 
	C118.678711,118.844688 104.208054,143.637436 103.201286,175.358383 
	C102.586945,194.714859 108.085808,212.829285 119.799995,228.671280 
	C122.836205,232.777390 125.946999,236.828354 129.023529,240.904648 
	C122.748810,240.933517 116.474083,240.962387 109.616074,240.640137 
	C98.521049,226.139893 92.175041,210.216675 88.889069,192.990234 
	C88.906570,183.395615 87.947227,173.680054 89.117455,164.228149 
	C93.291382,130.515274 110.243286,104.735512 139.571167,86.842613 
z"/>
<path fill="#FFB874" opacity="1.000000" stroke="none" 
	d="
M129.487396,240.957397 
	C125.946999,236.828354 122.836205,232.777390 119.799995,228.671280 
	C108.085808,212.829285 102.586945,194.714859 103.201286,175.358383 
	C104.208054,143.637436 118.678711,118.844688 145.013428,101.059120 
	C145.685013,100.605545 146.541519,100.425758 147.663467,100.066132 
	C147.918945,104.109245 149.460587,107.215172 153.729614,108.947067 
	C154.083969,109.006439 154.046906,109.502083 154.020813,109.749191 
	C131.920944,123.265640 119.226334,142.573700 115.915428,168.212143 
	C113.235107,188.967499 118.822968,207.450012 131.137436,223.850861 
	C135.764038,230.012726 142.083176,234.903763 147.813004,240.647018 
	C141.980637,240.949951 135.965942,240.980042 129.487396,240.957397 
z"/>
<path fill="#F11A8B" opacity="1.000000" stroke="none" 
	d="
M88.428589,192.994629 
	C92.175041,210.216675 98.521049,226.139893 109.167061,240.614807 
	C104.140121,241.239426 98.978920,241.538239 93.406326,241.904373 
	C88.747658,241.647171 84.503922,241.259018 80.251740,241.022675 
	C77.813744,240.887161 75.362053,240.998123 72.863808,240.998123 
	C72.863808,234.422134 73.493996,228.433136 72.720596,222.631241 
	C71.465210,213.213623 67.336823,204.907166 60.572128,198.037582 
	C59.308491,196.754364 58.271812,195.247650 57.054558,193.520660 
	C67.308517,193.131180 77.638313,193.065094 88.428589,192.994629 
z"/>
<path fill="#FC6ABE" opacity="1.000000" stroke="none" 
	d="
M340.005219,420.979401 
	C336.706116,420.823517 333.309875,421.164886 330.144348,420.464172 
	C322.871643,418.854370 318.359772,414.155243 316.717041,406.815796 
	C314.933441,398.846710 318.413391,393.061951 324.679932,388.147583 
	C334.695465,383.373993 345.008240,385.832092 349.385773,393.804199 
	C354.833221,403.724854 351.938721,413.076141 340.977783,419.929871 
	C340.253784,420.451538 340.059784,420.692902 339.963470,421.012787 
	C339.963470,421.012787 340.012878,421.003357 340.005219,420.979401 
z"/>
<path fill="#FE228E" opacity="1.000000" stroke="none" 
	d="
M451.095825,341.297668 
	C455.115204,340.854919 459.098358,340.884216 463.081360,340.927216 
	C472.449677,341.028320 476.963470,345.769714 476.641083,355.664490 
	C472.214447,364.109711 461.570801,368.143890 453.009827,364.705109 
	C451.979889,364.291382 451.138092,362.129303 451.097626,360.751465 
	C450.912079,354.431366 451.042542,348.101959 451.095825,341.297668 
z"/>
<path fill="#FF238F" opacity="1.000000" stroke="none" 
	d="
M340.155518,420.885651 
	C340.059784,420.692902 340.253784,420.451538 340.759766,420.189636 
	C340.799225,420.345062 340.590393,420.567719 340.155518,420.885651 
z"/>
<path fill="#FFF084" opacity="1.000000" stroke="none" 
	d="
M251.042908,39.038441 
	C251.057892,38.866844 251.072876,38.695244 251.105377,38.265839 
	C256.884338,35.906578 262.552551,33.488914 268.423279,31.758266 
	C294.215942,24.154793 317.903961,28.852842 338.825928,45.462036 
	C359.848663,62.151215 369.516937,84.576767 367.838470,111.209671 
	C366.266205,136.158188 354.115204,155.629593 333.838196,170.098022 
	C332.351471,171.158859 330.874207,172.232910 329.210388,173.561752 
	C328.581299,173.848129 328.134338,173.873566 327.248718,173.592316 
	C326.025543,172.716537 325.257446,172.122971 324.453857,171.582138 
	C316.785492,166.421158 316.826752,158.967941 324.377716,153.670639 
	C327.215668,151.679718 329.897919,149.368607 332.294891,146.862701 
	C354.879944,123.251007 354.617249,86.285530 331.266296,63.907509 
	C313.919403,47.283379 288.359772,41.844597 263.890869,53.735050 
	C258.214325,56.493507 251.658173,52.792442 251.074768,46.519421 
	C250.844772,44.046162 251.040848,41.533279 251.042908,39.038441 
z"/>
<path fill="#FFB874" opacity="1.000000" stroke="none" 
	d="
M221.727661,226.949005 
	C222.097443,227.008041 222.055603,227.504074 222.027039,227.751312 
	C212.014526,232.304398 201.903717,235.370102 190.719406,235.129257 
	C168.773941,234.656662 146.327362,219.009583 138.914383,198.245956 
	C130.853714,175.668228 135.023743,155.344711 150.412827,137.300125 
	C153.509201,133.669449 157.746002,131.011353 161.151688,128.160416 
	C163.686356,133.412811 165.798874,137.790436 167.639877,142.606659 
	C163.481384,144.275421 160.878067,146.724396 161.169708,150.985413 
	C161.440491,154.941498 163.984772,157.396637 167.880844,157.886032 
	C171.000000,158.277847 170.999039,160.248474 170.995407,162.511581 
	C170.979935,172.155380 170.946121,181.799545 171.017395,191.442841 
	C171.036758,194.064117 170.622681,195.761429 167.443481,196.228333 
	C163.566238,196.797760 161.169357,199.492752 161.149796,203.465515 
	C161.130249,207.437515 163.497391,210.171234 167.371124,210.758057 
	C170.486786,211.230026 170.947769,212.800079 171.059174,215.466599 
	C171.276459,220.668137 174.344070,223.995651 178.347168,223.853821 
	C182.853821,223.694107 185.863663,220.811417 185.884155,215.658890 
	C185.899521,211.791718 187.468628,210.588165 191.334198,210.982605 
	C192.451843,210.994064 193.196960,210.998795 193.948975,211.446533 
	C193.961639,213.207321 194.053055,214.531357 193.957077,215.841675 
	C193.672668,219.724335 195.634094,222.717056 199.073227,223.203506 
	C201.497482,223.546387 204.314102,221.716537 206.820984,220.564117 
	C207.761475,220.131775 208.321838,218.872559 209.055527,217.990326 
	C213.156311,220.956879 217.257111,223.923416 221.727661,226.949005 
z"/>
<path fill="#FFA56D" opacity="1.000000" stroke="none" 
	d="
M193.942093,211.003525 
	C193.196960,210.998795 192.451843,210.994064 191.109924,210.733246 
	C184.740845,205.676910 184.871658,201.497375 191.434875,196.058228 
	C197.530228,196.015717 203.154648,196.037674 208.778107,195.973663 
	C212.500626,195.931305 215.658478,194.455948 215.607086,190.411728 
	C215.557526,186.511490 212.766785,184.846970 208.800827,184.919250 
	C202.519012,185.033752 196.232574,184.894608 189.882233,184.514679 
	C185.676163,179.120377 186.935791,174.121414 190.419586,169.096756 
	C195.385559,169.051804 199.883896,168.926956 204.372620,169.081345 
	C208.106827,169.209808 210.750870,167.978592 210.856232,163.979492 
	C210.964966,159.852661 208.342697,158.081924 204.448105,158.020782 
	C199.955002,157.950226 195.460724,157.952972 190.733231,157.682556 
	C184.709045,152.670898 184.841446,148.210724 190.925949,143.074615 
	C191.652618,143.040527 192.379303,143.006424 193.953613,142.980225 
	C199.496490,142.995544 204.191711,143.002960 208.886948,143.010391 
	C212.699234,145.258835 216.910355,147.036942 220.237122,149.857941 
	C226.337509,155.030884 227.362457,162.129715 225.196411,169.451889 
	C224.176590,172.899277 224.636139,175.347275 226.671158,178.134003 
	C231.612427,184.900558 232.406830,192.279984 228.401215,199.717773 
	C224.481262,206.996475 218.330658,211.056183 208.932709,211.000580 
	C203.344604,211.002533 198.643341,211.003036 193.942093,211.003525 
z"/>
<path fill="#FF9265" opacity="1.000000" stroke="none" 
	d="
M190.514206,143.050415 
	C184.841446,148.210724 184.709045,152.670898 190.313965,157.709839 
	C186.761230,157.627838 185.652252,159.369141 185.998169,162.446609 
	C186.314957,165.264969 184.567612,169.306580 189.947784,169.137772 
	C186.935791,174.121414 185.676163,179.120377 189.473755,184.550201 
	C183.613907,185.833389 186.488022,190.119888 186.119324,192.902618 
	C185.630447,196.592499 188.794724,195.826019 190.963547,196.086151 
	C184.871658,201.497375 184.740845,205.676910 190.737396,210.726532 
	C187.468628,210.588165 185.899521,211.791718 185.884155,215.658890 
	C185.863663,220.811417 182.853821,223.694107 178.347168,223.853821 
	C174.344070,223.995651 171.276459,220.668137 171.059174,215.466599 
	C170.947769,212.800079 170.486786,211.230026 167.371124,210.758057 
	C163.497391,210.171234 161.130249,207.437515 161.149796,203.465515 
	C161.169357,199.492752 163.566238,196.797760 167.443481,196.228333 
	C170.622681,195.761429 171.036758,194.064117 171.017395,191.442841 
	C170.946121,181.799545 170.979935,172.155380 170.995407,162.511581 
	C170.999039,160.248474 171.000000,158.277847 167.880844,157.886032 
	C163.984772,157.396637 161.440491,154.941498 161.169708,150.985413 
	C160.878067,146.724396 163.481384,144.275421 167.725327,142.941833 
	C169.043137,141.663361 170.673035,140.580643 170.850067,139.297470 
	C171.657822,133.442764 173.977325,130.227448 178.019135,130.173782 
	C182.428162,130.115234 185.709946,133.540634 185.912399,139.077103 
	C186.024933,142.154648 187.225174,143.276337 190.514206,143.050415 
z"/>
<path fill="#FF9265" opacity="1.000000" stroke="none" 
	d="
M193.948975,211.446533 
	C198.643341,211.003036 203.344604,211.002533 208.509094,210.999359 
	C208.988434,213.037079 209.004547,215.077484 209.038086,217.554108 
	C208.321838,218.872559 207.761475,220.131775 206.820984,220.564117 
	C204.314102,221.716537 201.497482,223.546387 199.073227,223.203506 
	C195.634094,222.717056 193.672668,219.724335 193.957077,215.841675 
	C194.053055,214.531357 193.961639,213.207321 193.948975,211.446533 
z"/>
<path fill="#FF9265" opacity="1.000000" stroke="none" 
	d="
M208.901596,142.589935 
	C204.191711,143.002960 199.496490,142.995544 194.317383,142.978180 
	C193.862259,141.475815 193.984192,139.978271 193.902466,138.491913 
	C193.650757,133.913712 195.988876,131.231705 200.218536,130.289413 
	C203.648514,129.525284 207.339737,132.526260 208.380249,136.757141 
	C208.808823,138.499786 208.752182,140.361786 208.901596,142.589935 
z"/>
<path fill="#FFD47C" opacity="1.000000" stroke="none" 
	d="
M250.724731,39.170013 
	C251.040848,41.533279 250.844772,44.046162 251.074768,46.519421 
	C251.658173,52.792442 258.214325,56.493507 263.890869,53.735050 
	C288.359772,41.844597 313.919403,47.283379 331.266296,63.907509 
	C354.617249,86.285530 354.879944,123.251007 332.294891,146.862701 
	C329.897919,149.368607 327.215668,151.679718 324.377716,153.670639 
	C316.826752,158.967941 316.785492,166.421158 324.453857,171.582138 
	C325.257446,172.122971 326.025543,172.716537 326.913422,173.599182 
	C319.534210,179.337646 310.788330,181.267059 301.951935,182.889526 
	C299.245514,183.386444 298.027435,182.093781 297.966858,179.278870 
	C297.877899,175.143585 297.567352,171.008560 297.215393,166.884995 
	C296.963104,163.928909 298.705688,163.538193 301.073700,162.903839 
	C306.918182,161.338104 312.635803,159.298782 318.550201,157.403107 
	C314.095428,153.519745 310.437347,150.330872 306.443420,146.606888 
	C306.103333,144.053574 306.099060,142.035370 306.510620,140.014740 
	C316.216125,139.846191 322.771820,135.284286 326.445221,126.993874 
	C329.839539,119.333328 328.237213,112.145195 323.178406,105.523369 
	C322.279877,104.347206 321.653015,102.035820 322.194885,100.830521 
	C327.553925,88.910774 319.175110,74.000610 306.053802,71.552223 
	C306.023499,69.624817 306.095642,68.126282 305.973328,66.643784 
	C305.599243,62.110611 302.385406,58.963406 298.340179,59.077118 
	C294.501862,59.185020 291.454651,62.242130 291.061035,66.521461 
	C290.894470,68.331886 290.959290,70.163597 290.551453,71.981186 
	C289.449219,71.992172 288.714447,72.007607 287.566528,72.002563 
	C284.189301,72.256699 283.095062,70.968300 283.011932,67.946617 
	C282.857483,62.334332 280.084076,59.191841 275.772614,59.083534 
	C271.568024,58.977913 268.841644,62.205769 268.009277,67.834824 
	C267.803040,69.229416 266.752106,70.499092 266.089447,71.826187 
	C263.838776,67.103653 261.588074,62.381126 259.239777,57.453785 
	C253.752335,59.160652 250.304337,62.781727 237.100861,81.623550 
	C231.341278,79.532822 225.490982,77.409164 219.105057,75.091064 
	C225.947754,59.760975 236.115570,47.763622 250.724731,39.170013 
z"/>
<path fill="#FFA46D" opacity="1.000000" stroke="none" 
	d="
M287.979675,72.023041 
	C288.714447,72.007607 289.449219,71.992172 291.026245,71.985489 
	C296.601471,71.992302 301.334381,71.990364 306.067322,71.988419 
	C319.175110,74.000610 327.553925,88.910774 322.194885,100.830521 
	C321.653015,102.035820 322.279877,104.347206 323.178406,105.523369 
	C328.237213,112.145195 329.839539,119.333328 326.445221,126.993874 
	C322.771820,135.284286 316.216125,139.846191 306.035828,140.008881 
	C300.740204,140.005707 296.335236,140.005966 291.930237,140.006226 
	C289.613159,135.218109 287.296082,130.430008 285.432312,125.276093 
	C292.703888,124.925369 299.526031,125.082779 306.338837,124.897842 
	C309.958466,124.799583 312.941193,123.291336 312.938843,119.003159 
	C312.936493,114.701752 309.910095,113.165718 306.316528,113.145576 
	C300.189972,113.111252 294.060760,113.553856 287.867065,113.462112 
	C284.629364,108.991013 282.670776,104.774986 286.706909,100.002495 
	C287.054901,99.591026 286.887604,98.743805 287.430878,98.066330 
	C292.524231,98.032845 297.149384,97.928268 301.767609,98.062935 
	C305.704803,98.177750 308.525787,96.517586 308.601349,92.615700 
	C308.679413,88.584732 305.569519,87.076187 301.836700,87.020348 
	C297.215485,86.951202 292.593109,86.959488 287.795532,86.640823 
	C282.633301,80.258751 282.670837,78.764511 287.979675,72.023041 
z"/>
<path fill="#FF9265" opacity="1.000000" stroke="none" 
	d="
M286.959686,98.099007 
	C286.887604,98.743805 287.054901,99.591026 286.706909,100.002495 
	C282.670776,104.774986 284.629364,108.991013 287.477081,113.504967 
	C281.476196,114.462349 283.548676,118.869156 283.123169,122.042496 
	C278.298370,115.962952 272.826324,110.263908 268.931091,103.637871 
	C267.078308,100.486145 268.499695,95.527924 267.889465,91.470505 
	C267.637817,89.797165 266.291016,87.697220 264.837738,86.915970 
	C261.566467,85.157455 258.771973,83.459877 259.006042,79.193840 
	C259.230408,75.105263 261.636993,72.977142 265.715179,71.893738 
	C266.752106,70.499092 267.803040,69.229416 268.009277,67.834824 
	C268.841644,62.205769 271.568024,58.977913 275.772614,59.083534 
	C280.084076,59.191841 282.857483,62.334332 283.011932,67.946617 
	C283.095062,70.968300 284.189301,72.256699 287.566528,72.002556 
	C282.670837,78.764511 282.633301,80.258751 287.378540,86.661514 
	C283.751404,86.617516 282.750763,88.457977 283.087341,91.441711 
	C283.399902,94.212860 281.617737,98.240776 286.959686,98.099007 
z"/>
<path fill="#FFD27B" opacity="1.000000" stroke="none" 
	d="
M283.312927,122.254211 
	C283.548676,118.869156 281.476196,114.462349 287.542664,113.838959 
	C294.060760,113.553856 300.189972,113.111252 306.316528,113.145576 
	C309.910095,113.165718 312.936493,114.701752 312.938843,119.003159 
	C312.941193,123.291336 309.958466,124.799583 306.338837,124.897842 
	C299.526031,125.082779 292.703888,124.925369 285.410339,124.894882 
	C284.457611,124.074951 283.980164,123.270432 283.312927,122.254211 
z"/>
<path fill="#FF9266" opacity="1.000000" stroke="none" 
	d="
M291.948547,140.408707 
	C296.335236,140.005966 300.740204,140.005707 305.619995,140.011292 
	C306.099060,142.035370 306.103333,144.053574 306.131897,146.501282 
	C304.517853,148.643600 303.170776,150.930206 301.176758,151.942535 
	C297.677704,153.718903 294.830597,152.684036 293.872284,148.388107 
	C293.305481,145.847229 292.606445,143.335831 291.948547,140.408707 
z"/>
<path fill="#FFD47C" opacity="1.000000" stroke="none" 
	d="
M191.434875,196.058228 
	C188.794724,195.826019 185.630447,196.592499 186.119324,192.902618 
	C186.488022,190.119888 183.613907,185.833389 189.539612,184.898315 
	C196.232574,184.894608 202.519012,185.033752 208.800827,184.919250 
	C212.766785,184.846970 215.557526,186.511490 215.607086,190.411728 
	C215.658478,194.455948 212.500626,195.931305 208.778107,195.973663 
	C203.154648,196.037674 197.530228,196.015717 191.434875,196.058228 
z"/>
<path fill="#FFD37C" opacity="1.000000" stroke="none" 
	d="
M190.419586,169.096756 
	C184.567612,169.306580 186.314957,165.264969 185.998169,162.446609 
	C185.652252,159.369141 186.761230,157.627838 190.547699,157.951172 
	C195.460724,157.952972 199.955002,157.950226 204.448105,158.020782 
	C208.342697,158.081924 210.964966,159.852661 210.856232,163.979492 
	C210.750870,167.978592 208.106827,169.209808 204.372620,169.081345 
	C199.883896,168.926956 195.385559,169.051804 190.419586,169.096756 
z"/>
<path fill="#FF9266" opacity="1.000000" stroke="none" 
	d="
M306.053802,71.552216 
	C301.334381,71.990364 296.601471,71.992302 291.393738,71.989937 
	C290.959290,70.163597 290.894470,68.331886 291.061035,66.521461 
	C291.454651,62.242130 294.501862,59.185020 298.340179,59.077118 
	C302.385406,58.963406 305.599243,62.110611 305.973328,66.643784 
	C306.095642,68.126282 306.023499,69.624817 306.053802,71.552216 
z"/>
<path fill="#FFD27B" opacity="1.000000" stroke="none" 
	d="
M287.430878,98.066330 
	C281.617737,98.240776 283.399902,94.212860 283.087341,91.441711 
	C282.750763,88.457977 283.751404,86.617516 287.554260,86.955017 
	C292.593109,86.959488 297.215485,86.951202 301.836700,87.020348 
	C305.569519,87.076187 308.679413,88.584732 308.601349,92.615700 
	C308.525787,96.517586 305.704803,98.177750 301.767609,98.062935 
	C297.149384,97.928268 292.524231,98.032845 287.430878,98.066330 
z"/>
</svg>